<svg width="65" height="65" viewBox="0 0 65 65" fill="none" xmlns="http://www.w3.org/2000/svg">
<circle cx="32.5" cy="32.5" r="32.5" fill="#F4F7FE"/>
<path opacity="0.35" d="M21.5318 30.2174C20.0214 28.7069 17.5715 28.7069 16.0595 30.2174C14.5474 31.7279 14.549 34.1777 16.0595 35.6898L23.2482 42.8785C25.4907 45.121 29.1245 45.121 31.367 42.8785L32.7799 41.4655L21.5318 30.2174Z" fill="#34C759"/>
<path d="M47.8412 20.9317C46.3307 19.4212 43.8808 19.4212 42.3688 20.9317L27.3074 35.9931L32.7798 41.4655L47.8412 26.4041C49.3517 24.892 49.3517 22.4422 47.8412 20.9317Z" fill="#34C759"/>
<path opacity="0.35" d="M21.5318 30.2174C20.0214 28.7069 17.5715 28.7069 16.0595 30.2174C14.5474 31.7278 14.549 34.1777 16.0595 35.6897L23.2482 42.8784C25.4907 45.1209 29.1245 45.1209 31.367 42.8784L32.7799 41.4655L21.5318 30.2174Z" fill="#34C759"/>
<path d="M47.8412 20.9317C46.3307 19.4212 43.8808 19.4212 42.3688 20.9317L27.3074 35.9931L32.7798 41.4655L47.8412 26.404C49.3517 24.892 49.3517 22.4421 47.8412 20.9317Z" fill="#34C759"/>
</svg>
